<svg width="20px" height="21px" viewBox="0 0 20 21" version="1.1" xmlns="http://www.w3.org/2000/svg" xmlns:xlink="http://www.w3.org/1999/xlink">
    <!-- Generator: Sketch 51.2 (57519) - http://www.bohemiancoding.com/sketch -->
    <desc>Created with Sketch.</desc>
    <defs></defs>
    <g id="btn-clear" stroke="none" stroke-width="1" fill="none" fill-rule="evenodd">
        <g id="btn-clear-1" transform="translate(-1491.000000, -243.000000)" fill="#BFBFBF" fill-rule="nonzero">
            <g id="btn-clear-2" transform="translate(219.000000, 217.000000)">
                <g id="icon_pres_delete" transform="translate(1272.000000, 26.000000)">
                    <path d="M11.4327852,15.018613 L11.4327852,7.15188439 C11.4327852,6.23512596 12.8649952,6.23512596 12.8649952,7.15188439 L12.8649952,15.018613 C12.8649952,15.9354715 11.4327852,15.9354715 11.4327852,15.018613 Z M7.13487478,15.018613 L7.13487478,7.15188439 C7.13487478,6.23512596 8.56774507,6.23512596 8.56774507,7.15188439 L8.56774507,15.018613 C8.56772505,15.9354715 7.13487478,15.9354715 7.13487478,15.018613 Z M19.3119209,3.57594221 L15.7307157,3.57594221 L15.7307157,2.14509306 C15.7307157,0.960483161 14.7676511,6.93989452e-17 13.603953,6.93989452e-17 L6.4187298,0 C5.23221883,0 4.26981459,0.960503166 4.26981459,2.14509306 L4.26981459,3.57594221 L0.688589392,3.57594221 C-0.229529797,3.57594221 -0.229529797,5.00555065 0.688589392,5.00555065 L19.3119209,5.00555065 C20.2293597,5.00555065 20.2293597,3.57594221 19.3119209,3.57594221 Z M5.70266486,2.14507305 C5.70266486,1.76513821 6.0382146,1.42958844 6.41870977,1.42958844 L13.603933,1.42958844 C13.9844682,1.42958844 14.2978454,1.72025282 14.2978454,2.14507305 L14.2978454,3.5759222 L5.70266486,3.5759222 L5.70266486,2.14507305 Z M15.0140104,20.0248641 L4.9858595,20.0248641 C3.80000891,20.0248641 2.83760467,19.064461 2.83760467,17.8798711 L2.83760467,7.15188439 C2.83760467,6.72706416 3.17315441,6.43641979 3.55364958,6.43641979 C3.93424482,6.43641979 4.26979456,6.72706414 4.26979456,7.15188439 L4.26979456,17.879851 C4.26979456,18.2590255 4.60600468,18.5945552 4.98583948,18.5945552 L15.0139904,18.5945552 C15.3944856,18.5945552 15.7306957,18.2590255 15.7306957,17.879851 L15.7306957,7.17403692 C15.7306957,6.23512596 17.1629056,6.23512596 17.1629056,7.17403692 L17.1629056,17.879851 C17.1629256,19.064461 16.2005214,20.0248641 15.0140104,20.0248641 Z" id="Shape"></path>
                </g>
            </g>
        </g>
    </g>
</svg>