<svg t="1544609158199" class="icon" style="" viewBox="0 0 1024 1024" version="1.1" xmlns="http://www.w3.org/2000/svg" p-id="7311" xmlns:xlink="http://www.w3.org/1999/xlink" width="100" height="100"><defs><style type="text/css"></style></defs>
  <g id="dept" fill="#9D9D9D">
    <path d="M933.248 662.368l-84.275 0L848.973 527.43c0-38.834-31.564-70.4-70.4-70.4L256.691 457.03c-38.835 0-70.4 31.566-70.4 70.4l0 134.938L99.379 662.368c-24.704 0-44.8 20.096-44.8 44.8l0 206.925c0 24.704 20.096 44.8 44.8 44.8l206.925 0c24.704 0 44.8-20.096 44.8-44.8L351.104 707.168c0-24.704-20.096-44.8-44.8-44.8l-81.613 0L224.691 527.43c0-17.638 14.362-32 32-32l521.881 0c17.639 0 32 14.362 32 32l0 134.938-84.274 0c-24.704 0-44.8 20.096-44.8 44.8l0 206.925c0 24.704 20.096 44.8 44.8 44.8l206.95 0c24.704 0 44.8-20.096 44.8-44.8L978.048 707.168C978.048 682.464 957.952 662.368 933.248 662.368zM312.704 707.168l0 206.925c0 3.533-2.867 6.4-6.4 6.4L99.379 920.493c-3.533 0-6.4-2.867-6.4-6.4L92.979 707.168c0-3.533 2.867-6.4 6.4-6.4l206.925 0C309.837 700.768 312.704 703.661 312.704 707.168zM939.648 914.093c0 3.533-2.867 6.4-6.4 6.4l-206.95 0c-3.532 0-6.399-2.867-6.399-6.4L719.899 707.168c0-3.533 2.867-6.4 6.399-6.4l206.95 0c3.533 0 6.4 2.867 6.4 6.4L939.648 914.093zM620.461 132.5 620.461 132.5 620.461 132.5l0 216.393 0 0L403.54 348.893 403.54 132.5l0 0L620.461 132.5M620.461 92.5 403.54 92.5c-22.091 0-40 17.909-40 40l0 216.393c0 22.092 17.909 40 40 40l216.921 0c22.091 0 40-17.908 40-40L660.461 132.5C660.461 110.409 642.552 92.5 620.461 92.5L620.461 92.5z" p-id="7312"></path>
  </g>
</svg>
