<svg id="图层_1" data-name="图层 1" xmlns="http://www.w3.org/2000/svg" xmlns:xlink="http://www.w3.org/1999/xlink" viewBox="0 0 33.15 34"><defs><style>.cls-1{fill:none;clip-rule:evenodd;}.cls-2{clip-path:url(#clip-path);}.cls-3{fill:#9b9b9b;}</style><clipPath id="clip-path"><path class="cls-1" d="M20.11,27.32H10.54c-1.29,0-2.58.05-3.86,0-.37,0-.81-.17-.81-.66s.46-.57.82-.58c4.44,0,8.89-.06,13.33,0,1.23,0,1.76-.4,2-1.47a7.68,7.68,0,0,0-1-6.13c-.38-.59-.83-.62-1.59-.68-2.14-.18-2.72,1.2-3.5,2.52-.68,1.15-.7,1.13-2.16.64a4.66,4.66,0,0,0-.5.65,1,1,0,0,1-1.61.43c-.51-.32-1.07-.59-1.61-.89-1.65-.91-1.64-.91-.78-2.63C7.86,17.84,8.37,17,9,16c2-3.12,3.9-6.26,5.79-9.42C15.32,5.73,15.84,5.12,17,6c.41-.64.77-1.19,1.1-1.72C18.07,4.1,18,4,18,4c-.66-.49-1.56-.92-.9-1.89S18.6,1.58,19.39,2c1.47.79,2.95,1.55,4.39,2.36.77.43,1.9.78,1.31,1.94s-1.54.57-2.48.15L21.48,8.27c1.28.61,1.19,1.4.47,2.32a2.87,2.87,0,0,0-.6,2.82,6.31,6.31,0,0,1,.17.7C21.8,16,23,16.85,23.75,18.4c1.85,3.93,1.19,7.55-1.69,10.85-.26.3-.55.6-1,1.1,2.64,0,5,0,7.4,0,.92,0,2.21-.29,2.24,1.09s-1.33,1.16-2.27,1.17c-7.21,0-14.41,0-21.61,0H6c-.86,0-1.54-.23-1.5-1.17s.66-1.1,1.47-1.1h8a8.68,8.68,0,0,0,5.39-1.86c.34-.26.47-.45.78-.73.17-.13.05-.45,0-.45"/></clipPath></defs><title>画板 9</title><g class="cls-2"><rect class="cls-3" x="-0.5" y="-3.5" width="36.18" height="41.15"/></g></svg>