<svg width="12px" height="12px" viewBox="0 0 12 12" version="1.1" xmlns="http://www.w3.org/2000/svg" xmlns:xlink="http://www.w3.org/1999/xlink">
    <!-- Generator: Sketch 51.2 (57519) - http://www.bohemiancoding.com/sketch -->
    <desc>Created with Sketch.</desc>
    <defs>
        <polygon id="path-1" points="0.00087804878 0.00438461538 11.9893793 0.00438461538 11.9893793 11.9999853 0.00087804878 11.9999853"></polygon>
    </defs>
    <g id="export-01" stroke="none" stroke-width="1" fill="none" fill-rule="evenodd">
        <g id="export-02" transform="translate(-727.000000, -473.000000)">
            <g id="export-03" transform="translate(727.000000, 473.000000)">
                <mask id="mask-2" fill="white">
                    <use xlink:href="#path-1"></use>
                </mask>
                <g id="export-04"></g>
                <path d="M11.4548195,0.0053040293 C11.7343024,0.0053040293 11.9568439,0.228117216 11.9568439,0.50043956 L11.9568439,3.49665934 C11.9568439,3.77648352 11.7343024,3.99179487 11.4548195,3.99179487 C11.1798,3.9934652 10.9552537,3.77201465 10.9527951,3.49665934 L10.9527951,0.50043956 C10.9608,0.227487179 11.1820829,0.0092014652 11.4548195,0.0053040293 Z" id="Fill-1" fill="#F7FBFF" fill-rule="evenodd" mask="url(#mask-2)"></path>
                <path d="M7.97149756,0.507941392 C7.97149756,0.228117216 8.19472683,0.0053040293 8.47346341,0.0053040293 L11.4630585,0.0053040293 C11.6475805,-0.00482051282 11.8226195,0.088014652 11.9179171,0.246490842 C12.0132,0.405025641 12.0132,0.603355311 11.9179171,0.76189011 C11.8226195,0.9203663 11.6475805,1.01320147 11.4630585,1.00307692 L8.47346341,1.00307692 C8.1984439,1.0047326 7.9739561,0.783296703 7.97149756,0.507941392 Z" id="Fill-3" fill="#F7FBFF" fill-rule="evenodd" mask="url(#mask-2)"></path>
                <path d="M6.17023902,5.79822711 C5.97936585,5.60288645 5.97936585,5.29068132 6.17023902,5.09534066 L11.1041707,0.148615385 C11.298761,-0.0436923077 11.6116244,-0.0436923077 11.8062146,0.148615385 C11.9970878,0.343956044 11.9970878,0.656175824 11.8062146,0.851516484 L6.87976098,5.79822711 C6.7866439,5.89427106 6.65865366,5.94841026 6.525,5.94841026 C6.39134634,5.94841026 6.2633561,5.89427106 6.17023902,5.79822711 Z" id="Fill-4" fill="#F7FBFF" fill-rule="evenodd" mask="url(#mask-2)"></path>
                <path d="M10.9610341,5.75095971 L10.9610341,9.99403663 C10.9610341,10.5453773 10.5144585,10.9932308 9.96453659,10.9932308 L1.99303902,10.9932308 C1.44305854,10.9932308 0.996556098,10.5453773 0.996556098,9.99403663 L0.996556098,2.00232967 C0.996556098,1.4509304 1.44305854,1.00382418 1.99303902,1.00382418 L6.26616585,1.00382418 C6.53660488,1.00382418 6.76063902,0.779516484 6.76063902,0.508688645 C6.75983415,0.235164835 6.53855122,0.0136556777 6.26536098,0.0128058608 L1.99303902,0.0128058608 C0.89177561,0.0136556777 -0.000395121951,0.907956044 -4.15927455e-16,2.01057875 L-4.15927455e-16,10.0022711 C-0.000395121951,11.1048938 0.89177561,11.9991795 1.99303902,11.9999853 L9.96453659,11.9999853 C11.0658146,11.9991795 11.9579854,11.1048938 11.9575902,10.0022711 L11.9575902,5.75095971 C11.9567268,5.47771429 11.7359561,5.256337 11.4630585,5.25507692 C11.3301512,5.25141392 11.2014146,5.30212454 11.1066878,5.39558974 C11.011961,5.48899634 10.9593805,5.61708425 10.9610341,5.75021245 L10.9610341,5.75095971 Z" id="Fill-5" fill="#F7FBFF" fill-rule="evenodd" mask="url(#mask-2)"></path>
            </g>
        </g>
    </g>
</svg>