<?xml version="1.0" encoding="utf-8"?>
<!-- Generator: Adobe Illustrator 22.0.0, SVG Export Plug-In . SVG Version: 6.00 Build 0)  -->
<svg version="1.1" xmlns="http://www.w3.org/2000/svg" xmlns:xlink="http://www.w3.org/1999/xlink" x="0px" y="0px"
	 viewBox="0 0 300 300" style="enable-background:new 0 0 300 300;" xml:space="preserve">
<style type="text/css">
	.st0{fill:#FFFFFF;}
</style>
<g id="图层_2">
</g>
<g id="图层_1">
	<path class="st0" d="M149.8,0C67.2,0,0,67.2,0,149.8s67.2,149.8,149.8,149.8s149.8-67.2,149.8-149.8S232.4,0,149.8,0z M61.8,243.9
		c0-8.3,2.2-18.7,11.1-20.8c16.2-4,28.7-8.6,38.1-13.6c9,12.2,23.3,19.4,39.1,19.4s30.5-7.9,39.9-20.5c9.7,5,22.6,10.1,39.9,14.4
		c2.9,0.7,10.8,2.9,11.1,18c-23.3,23.3-55.7,37.7-91.2,37.7C115.6,278.7,84.8,265.4,61.8,243.9z M174.5,158.4
		c-5.7,6.5-13.6,9.7-24.1,10.1h-0.4c-10.4,0-18.3-3.2-24.1-9.7c-15.4-17.2-11.9-51-11.9-51.4s0-0.4,0-0.7
		c1.4-35.2,26.9-37.7,34.5-37.7c0.4,0,0.7,0,1.1,0s0.7,0,0.7,0c5.7-0.4,34.1,0.4,35.6,37.7c0,0.4,0,0.4,0,0.7
		C187.5,116.4,187.5,144,174.5,158.4z M149.4,189.3c0.4,0,0.4,0,0.7,0h0.4h0.4c0.4,0,0.4,0,0.7,0c5,0,9.3-0.7,14-1.8
		c1.8,2.9,4.3,6.1,7.5,9.3c-5.4,7.2-13.6,11.5-22.6,11.5c-8.6,0-16.5-4-21.9-10.4c4-3.6,6.8-6.8,8.6-10.1
		C140.8,188.5,145.1,188.9,149.4,189.3z M257.1,220.9c-4.3-9.3-12.2-15.4-22.6-18.3c-32.7-8.3-46.3-18.3-50.6-24.4
		c2.2-1.8,4.3-3.6,6.1-5.7c20.8-23.3,17.6-62.5,17.2-67.2c-2.2-46.7-36.6-57.8-56.7-57.5C130,47,95.9,58.5,93.7,105.2
		c-0.4,4.3-3.6,43.8,17.2,67.2c2.2,2.5,4.7,4.7,7.2,6.8c-5.4,6.1-19,15.8-50.3,23.7c-11.1,2.9-19,10.1-23.3,21.2
		c-14.7-20.8-23.3-46.3-23.3-74C21.2,79,79,21.2,150.1,21.2S279,79,279,150.1C278.7,176,270.8,200.4,257.1,220.9z"/>
</g>
</svg>
