<?xml version="1.0" encoding="utf-8"?>
<!-- Generator: Adobe Illustrator 22.0.0, SVG Export Plug-In . SVG Version: 6.00 Build 0)  -->
<svg version="1.1" id="图层_1" xmlns="http://www.w3.org/2000/svg" xmlns:xlink="http://www.w3.org/1999/xlink" x="0px" y="0px"
	 viewBox="0 0 80.9 30.3" style="enable-background:new 0 0 80.9 30.3;" xml:space="preserve">
<style type="text/css">
	.st0{fill:#FFFFFF;}
	.st1{fill:#C42C33;}
</style>
<g>
	<g>
		<polygon class="st0" points="50.8,15.7 49.9,18.4 52.5,25.6 56.2,25.6 51.5,13.4 		"/>
		<polygon class="st0" points="59,25.6 61.7,25.6 62.6,14.1 60.1,14.1 		"/>
		<polygon class="st0" points="74.5,14.4 70,11.3 70,14.3 74.5,17.5 		"/>
		<polygon class="st0" points="74.5,9.2 70,6 70,9.1 74.5,12.3 		"/>
		<path class="st0" d="M66.3,13.3h1.4v0h0.6c0.1,0,0.3,0,0.4,0.1c0.2,0.1,0.3,0.3,0.3,0.6v-3.1h-1.4v0h-1.4V8.3l1.4-0.1l0.5,0
			c0.1,0,0.3,0,0.4,0.1c0.2,0.1,0.3,0.3,0.3,0.6V8.1h0V5.7l0,0v0l-1,0.1l-8.8,0.5v2.4l3.7-0.2v2.4h-3.7v2.4h3.7v12.3h3.4v-7.6
			l2.8,1.8v-2.6l-2.8-1.9V13.3z"/>
		<polygon class="st0" points="47.9,11.3 43.3,25.6 46.6,25.7 51.3,11.3 		"/>
		<polygon class="st0" points="52.7,9.7 51.5,13.3 55.4,9.7 55.4,7.4 49.6,7.4 50.7,5.5 47.3,5.5 44.9,9.8 		"/>
		<polygon class="st0" points="75.2,25.6 78.6,25.6 78.6,21.7 75.2,23.4 		"/>
		<polygon class="st0" points="78.6,5.4 75.2,5.4 75.2,20 78.6,18.3 		"/>
		<path class="st0" d="M38.9,16v3.5l3.4-1.7V16h1.9c0.1,0,0.3,0,0.4,0.1c0.2,0.1,0.3,0.3,0.3,0.6l1-3.1h-3.6v-2.3h-3.4v2.3H38
			l1.2-4.2h3.9c0.1,0,0.3,0,0.4,0.1c0.2,0.1,0.3,0.3,0.3,0.6L45.6,7h-5.7l0.4-1.5l-2.7,0L37.1,7h-2.3v2.4h1.6L34.6,16H38.9z"/>
		<polygon class="st0" points="38.9,25.6 42.3,25.6 42.3,21.9 42.3,21.1 38.9,22.7 		"/>
		<path class="st0" d="M44.5,18.2l-2.2,0L39,20h-4.1v2.4h4.1l3.4-1.7h0v0h0.4c0.1,0,0.3,0,0.4,0.1c0.2,0.1,0.3,0.3,0.4,0.6
			L44.5,18.2z"/>
		<path class="st0" d="M80.6,18.7L80.6,18.7l-2,0l-3.4,1.7h-6v2.4h6l3.4-1.7H79v0h0.2v0h0.6c0.1,0,0.3,0,0.4,0.1
			c0.2,0.1,0.3,0.3,0.3,0.6L80.6,18.7L80.6,18.7z"/>
	</g>
	<g>
		<rect x="3.1" y="3.1" class="st0" width="24.2" height="24.2"/>
		<path class="st1" d="M0.6,29.9h29.3V0.6H0.6V29.9z M2.9,2.9h24.7v24.7H2.9V2.9z"/>
		<polygon class="st1" points="20.1,11.6 15.4,17.7 13.7,16.4 12.6,21 20,26.1 26.9,26.1 18.6,20 25.1,11.6 		"/>
		<path class="st1" d="M12.6,11.2l-6.4,3.8l0,0.2l0.9,0l0,0c0.2,0,0.5,0.1,0.7,0.4C8,15.9,8.1,16.2,8,16.6l0,0l-2.2,9.6h4.3
			l3.5-14.9H12.6z"/>
		<polygon class="st1" points="19.7,10.9 25,10.9 15.6,4 5.9,10.2 5,14.4 15.3,8.1 		"/>
	</g>
</g>
</svg>
