<svg width="20px" height="16px" viewBox="0 0 20 16" version="1.1" xmlns="http://www.w3.org/2000/svg" xmlns:xlink="http://www.w3.org/1999/xlink">
    <!-- Generator: Sketch 51.2 (57519) - http://www.bohemiancoding.com/sketch -->
    <desc>Created with Sketch.</desc>
    <defs></defs>
    <g id="jichu02" stroke="none" stroke-width="1" fill="none" fill-rule="evenodd">
        <g id="jichu02-01" transform="translate(-308.000000, -299.000000)" fill="#F39C12">
            <g id="jichu02-02" transform="translate(267.000000, 287.000000)">
                <g id="icon_pres_jichu02" transform="translate(41.000000, 12.000000)">
                    <g id="jichu02-03">
                        <path d="M9.97775306,11.3904338 C9.7730812,11.3904338 9.56618465,11.3259177 9.3948832,11.1991101 L0.482758621,6.59621802 C0.418242492,6.56284761 0.358175751,6.51835373 0.307007786,6.46718576 C0.122358176,6.28253615 0.0200222469,6.03559511 0.0200222469,5.7753059 C0.0200222469,5.51279199 0.122358176,5.26807564 0.307007786,5.08342603 C0.355951057,5.03448276 0.413793103,4.99221357 0.476084538,4.95884316 L9.41490545,0.197997775 C9.75973304,-0.0622914349 10.240267,-0.0622914349 10.5873192,0.195773081 L19.4994438,4.86540601 C19.56396,4.89877642 19.621802,4.94104561 19.67297,4.99221357 C19.8576196,5.17686318 19.9599555,5.42380423 19.9599555,5.68409344 C19.9599555,5.94438265 19.8576196,6.19132369 19.67297,6.3759733 C19.621802,6.42714127 19.56396,6.46941046 19.5016685,6.50278087 L10.5650723,11.1968854 C10.3893215,11.3259177 10.1846496,11.3904338 9.97775306,11.3904338 Z M1.98220245,5.76863181 L9.97552836,9.89766407 L17.9955506,5.68631813 L10.0022247,1.49721913 L1.98220245,5.76863181 Z M19.6484983,9.41935484 L9.99110122,14.5027809 L0.26028921,9.47497219 C0.0311457175,9.75083426 -0.157953281,10.7096774 0.344827586,11.0567297 L9.61735261,15.8531702 C9.76863181,15.9532814 10.1846496,15.9532814 10.3403782,15.8598443 L19.6440489,10.9810901 C20.2113459,10.6829811 19.9510567,9.62847608 19.6484983,9.41935484 Z" id="jichu02-04" fill-rule="nonzero"></path>
                    </g>
                </g>
            </g>
        </g>
    </g>
</svg>
