<?xml version="1.0" encoding="utf-8"?>
<!-- Generator: Adobe Illustrator 22.1.0, SVG Export Plug-In . SVG Version: 6.00 Build 0)  -->
<svg version="1.1" id="图层_1" xmlns="http://www.w3.org/2000/svg" xmlns:xlink="http://www.w3.org/1999/xlink" x="0px" y="0px"
	 viewBox="0 0 18.3 5.2" style="enable-background:new 0 0 18.3 5.2;" xml:space="preserve">
<style type="text/css">
	.st0{fill:#FFFFFF;}
	.st1{fill:#AF1E24;}
	.st2{fill:#FEFEFF;}
</style>
<g>
	<rect x="0.4" y="0.5" class="st0" width="4.3" height="4.3"/>
	<path class="st1" d="M0,5.2h5.2V0H0V5.2z M0.4,0.4h4.4v4.4H0.4V0.4z"/>
	<polygon class="st1" points="3.4,2 2.6,3 2.3,2.8 2.1,3.6 3.4,4.5 4.6,4.5 3.2,3.5 4.3,2 	"/>
	<path class="st1" d="M2.1,1.9L1,2.6l0,0h0.2l0,0c0,0,0.1,0,0.1,0.1c0,0,0.1,0.1,0,0.2l0,0L0.9,4.6h0.8l0.6-2.7H2.1z"/>
	<polygon class="st1" points="3.4,1.8 4.3,1.8 2.6,0.6 0.9,1.7 0.8,2.5 2.6,1.3 	"/>
</g>
<g>
	<path class="st2" d="M7.2,4.3H6.9V0.9h1.8l0.6,0.6v0.7L8.7,2.8H7.2V4.3z M7.2,2.4h1.2c0.1,0,0.1,0,0.2-0.1L8.9,2C8.9,2,9,1.9,9,1.8
		V1.7c0-0.1,0-0.1-0.1-0.2L8.6,1.3C8.5,1.2,8.5,1.2,8.4,1.2H7.2V2.4z"/>
	<polygon class="st2" points="15.3,4.3 13,4.3 13,0.9 15.3,0.9 15.3,1.2 13.3,1.2 13.3,2.4 14.8,2.4 14.8,2.8 13.3,2.8 13.3,4 
		15.3,4 	"/>
	<path class="st2" d="M17.6,4.3h-1.2l-0.9-0.9H16l0.5,0.5C16.6,4,16.6,4,16.7,4h0.6c0.1,0,0.2,0,0.2-0.1l0.1-0.1
		c0.1-0.1,0.1-0.2,0-0.3l-1.9-1.9l0.7-0.7h1.2l0.7,0.6L18,1.7l-0.4-0.4c-0.1,0-0.2-0.1-0.3-0.1h-0.6c-0.1,0-0.2,0-0.2,0.1l-0.1,0.1
		c-0.1,0.1-0.1,0.2,0,0.3l1.9,1.9L17.6,4.3z"/>
	<path class="st2" d="M10.2,2.5l0.3,0.3L12,4.3h0.5L11,2.8h0.7l0.5-0.6V1.5l-0.6-0.6H9.8v3.4h0.3V2.5H10.2z M10.2,1.2h1.2
		c0.1,0,0.2,0,0.2,0.1l0.2,0.2c0.1,0.1,0.1,0.1,0.1,0.2v0.1c0,0.1,0,0.2-0.1,0.2l-0.2,0.2c-0.1,0.1-0.1,0.1-0.2,0.1h-1.2V1.2z"/>
</g>
</svg>
