<svg width="18px" height="18px" viewBox="0 0 20 20" version="1.1" xmlns="http://www.w3.org/2000/svg" xmlns:xlink="http://www.w3.org/1999/xlink">
    <!-- Generator: Sketch 51.2 (57519) - http://www.bohemiancoding.com/sketch -->
    <desc>Created with Sketch.</desc>
    <defs></defs>
    <g id="Page-1" stroke="none" stroke-width="1" fill="none" fill-rule="evenodd">
        <g id="right" transform="translate(-738.000000, -383.000000)">
            <g id="right" transform="translate(738.000000, 383.000000)">
                <g>
                    <path d="M18.6589614,14.9988316 C15.8978503,19.7808448 9.78356337,21.4191245 5.00057843,18.6583458 C0.218897708,15.8975672 -1.41973999,9.7829478 1.34103861,5.00129267 C4.10214966,0.218282147 10.2167691,-1.41999751 14.9994216,1.34177843 C19.7811023,4.10255703 21.41974,10.2171764 18.6589614,14.9988316 Z" id="Shape" fill="#1EBBA6" fill-rule="nonzero"></path>
                    <path d="M4.4129373,9.88639149 C4.09809187,10.2645437 4.16785991,10.8112513 4.5284294,11.1442648 L8.21645467,14.5464865 L8.40817607,14.7232592 C8.52954409,14.8355319 8.6517676,14.9311 8.78457225,15.0084774 C8.99738839,15.1313088 9.26826578,15.2210009 9.51683269,15.1987355 C9.75427813,15.1770329 9.98204297,15.0632968 10.1324304,14.8586979 L15.6010151,7.43836416 C15.8935726,7.04116589 15.8378753,6.48272892 15.4497498,6.1778568 L14.9238442,5.7639313 C14.5357187,5.45905916 13.9749404,5.54289789 13.6624588,5.91519668 L9.0299423,11.453527 L6.09646544,9.25906451 C5.70921795,8.96972641 5.15341504,8.99640441 4.83859212,9.37543463 L4.4129373,9.88639149 Z" id="Path" fill="#FFFFFF" fill-rule="nonzero"></path>
                </g>
            </g>
        </g>
    </g>
</svg>
