<svg id="图层_1" data-name="图层 1" xmlns="http://www.w3.org/2000/svg" xmlns:xlink="http://www.w3.org/1999/xlink" viewBox="0 0 33.15 34"><defs><style>.cls-1{fill:none;clip-rule:evenodd;}.cls-2{clip-path:url(#clip-path);}.cls-3{fill:#ffffff;}</style><clipPath id="clip-path"><path class="cls-1" d="M13.25,14a3.73,3.73,0,0,1-.59,0,2.27,2.27,0,0,1-.5-.14,1.11,1.11,0,0,1-.58-.55,3.24,3.24,0,0,1-.25-.71l-.09-.43v0a2.82,2.82,0,0,0-.07-.31v0h0s0,0,0-.06h0s0,0,0-.06l0-.09,0-.11L11,11.12,10.75,11s0,0,0,0v0a.2.2,0,0,1,0-.07c0-.16,0-.31,0-.47v-.12a.08.08,0,0,1,.06-.08h0l.17,0L12,10a11.5,11.5,0,0,1,1.27-.06h.09a9.4,9.4,0,0,1,1.66.15,7.18,7.18,0,0,1,.89.25l.5.13.24,0L16,12.17q-.11.27-.21.48a3,3,0,0,1-.66.83,1.8,1.8,0,0,1-.62.31,4.61,4.61,0,0,1-.92.16Zm-.68-.32.2,0a3.27,3.27,0,0,0,.54,0,4,4,0,0,0,1-.12,1.36,1.36,0,0,0,.65-.35,1.67,1.67,0,0,0,.35-.45,3.65,3.65,0,0,0,.39-1,2,2,0,0,0,.06-.67l0-.42-.37-.19a1.67,1.67,0,0,0-.43-.14h0a5.36,5.36,0,0,0-1.24-.12h-.15l-.43,0a4.86,4.86,0,0,0-.82.13l-.45.12-.1.45a1.06,1.06,0,0,0,0,.2h0v.06a2.9,2.9,0,0,0,0,.51,7.16,7.16,0,0,0,.14.88,1.84,1.84,0,0,0,.26.62.88.88,0,0,0,.21.22l.2.14Zm7.56.3a4.31,4.31,0,0,1-.9-.08,2.73,2.73,0,0,1-.73-.25,1.89,1.89,0,0,1-.75-.76,4.57,4.57,0,0,1-.35-.7l-.7-1.67a1.73,1.73,0,0,0,.53-.09l.27-.09.24-.09A7.67,7.67,0,0,1,18.79,10,11.4,11.4,0,0,1,20,9.92h.57l.88,0c.36,0,.73.08,1.13.14l.06,0h0a.07.07,0,0,1,.06.07s0,0,0,.08v0s0,.1,0,.16v.29l-.11-.2-.16.55h0l-.08.26-.27,1,0,0a5.31,5.31,0,0,1-.24.74,1.46,1.46,0,0,1-.23.41,1.09,1.09,0,0,1-.59.38,3.32,3.32,0,0,1-.69.11Zm-.36-3.67h-.38a6.88,6.88,0,0,0-.72.1,4.26,4.26,0,0,0-.51.13l-.47.16,0,.5v.09a2.21,2.21,0,0,0,.08.6A2.81,2.81,0,0,0,18.28,13a1.45,1.45,0,0,0,.83.52,5.26,5.26,0,0,0,1,.11h0a2.44,2.44,0,0,0,.69-.08,1,1,0,0,0,.49-.25,1.21,1.21,0,0,0,.26-.42,3.48,3.48,0,0,0,.22-1.18v0c0-.14,0-.27,0-.41v-.06a.62.62,0,0,1,0-.13l0-.11,0-.1v0l-.14-.33-.35-.09a6.18,6.18,0,0,0-1.31-.18h-.16Zm3.46,10.08-4.71,8.57-.7-2,1.29-2.58-2.58-2.57L14,24.3l1.29,2.58L14.41,29,9.84,20.35S.08,25.51.08,30.62c0,1.41.58,2.71,2,2.71H31c1.41,0,2-1.29,2-2.69C33.05,25.84,23.23,20.35,23.23,20.35ZM25,9.8V9.4l-.34-.23-.12-.08C23.86,3.15,23.91-.36,17,.68c-2.44.36-5.09-.39-6.6.71C8.46,3.17,8.33,5.83,8.85,9a4.05,4.05,0,0,0-.35.21l-.33.23v.4a6.33,6.33,0,0,0,.4,2.59A2.56,2.56,0,0,0,9.7,13.74a11,11,0,0,0,2.56,4.68,7.53,7.53,0,0,0,4.22,2.15l.15,0,.14,0a8,8,0,0,0,4.35-2.27,11,11,0,0,0,2.42-4.59,2.68,2.68,0,0,0,1.1-1.35A6.75,6.75,0,0,0,25,9.8Zm-1.84,2a1.07,1.07,0,0,1-.57.65l-.39.13-.11.4A9.76,9.76,0,0,1,20,17.21,6.49,6.49,0,0,1,16.6,19a5.93,5.93,0,0,1-3.21-1.68A9.67,9.67,0,0,1,11.12,13L11,12.55l-.41-.13a1,1,0,0,1-.58-.63,3.83,3.83,0,0,1-.26-1.26c.38-.06.81-.16,1,0,0-.07,0-.15.07-.24h0l0-.16c.12-.46.24-3.3.36-3.76A1.22,1.22,0,0,1,11.39,6c.56.75,4.79.84,7.24-.85l-.46,1.23.47.09.53-.83-.07.58.5.07.3-1c.61.35,1.29.81,1.89.56.2.45.35,3.19.45,3.72l.13.68.23,0,.1.36a6.56,6.56,0,0,1,.73-.05A4,4,0,0,1,23.18,11.77Z"/></clipPath></defs><title>画板 2</title><g class="cls-2"><rect class="cls-3" x="-4.92" y="-4.5" width="42.97" height="42.83"/></g></svg>