<svg width="20px" height="20px" viewBox="0 0 20 20" version="1.1" xmlns="http://www.w3.org/2000/svg" xmlns:xlink="http://www.w3.org/1999/xlink">
  <!-- Generator: Sketch 51.2 (57519) - http://www.bohemiancoding.com/sketch -->
  <desc>Created with Sketch.</desc>
  <defs>
    <polygon id="path-1" points="2.45398773e-05 0 20 0 20 19.9999755 2.45398773e-05 19.9999755"></polygon>
  </defs>
  <g id="Page-1" stroke="none" stroke-width="1" fill="none" fill-rule="evenodd">
    <g id="04B弹出面板趋势分析" transform="translate(-1710.000000, -31.000000)">
      <g id="顶部导航" transform="translate(-1.000000, 0.000000)">
        <g id="icon_user" transform="translate(1711.000000, 31.000000)">
          <g id="Group-3">
            <mask id="mask-2" fill="white">
              <use xlink:href="#path-1"></use>
            </mask>
            <g id="Clip-2"></g>
            <path d="M4.33683436,17.0922454 C4.3888589,16.3529816 4.79511656,13.8515092 7.55168098,12.448319 C8.24137423,12.9845153 9.08235583,13.2893006 10.0012515,13.2893006 C10.9200245,13.2893006 11.7868957,12.9586258 12.476589,12.4223067 C15.2072638,13.8254969 15.6395337,16.2749448 15.7174479,17.0663558 C14.1608834,18.3159264 12.1719264,19.0810798 10.0295951,19.0810798 C7.85879755,19.0835337 5.89352147,18.3441472 4.33683436,17.0922454 M6.93990184,9.3115092 C6.93990184,7.62721472 8.31695706,6.25015951 10.0012515,6.25015951 C11.6854233,6.25015951 13.0624785,7.62721472 13.0624785,9.3115092 C13.0624785,10.9955583 11.6854233,12.3727362 10.0012515,12.3727362 C8.31695706,12.3727362 6.93990184,10.9955583 6.93990184,9.3115092 M0.918920245,10.0012025 C0.918920245,5.00058896 5.00063804,0.918993865 10.0012515,0.918993865 C15.0017423,0.918993865 19.0834601,5.00058896 19.0834601,10.0012025 C19.0834601,12.450773 18.1149939,14.6686871 16.5324172,16.3032883 C16.2773252,15.103411 15.5120491,13.0624294 13.1640736,11.7372761 C13.7002699,11.0735951 14.0049325,10.2067239 14.0049325,9.28795092 C14.0049325,7.09347239 12.2192883,5.30770552 10.0248098,5.30770552 C7.83045399,5.30770552 6.04468712,7.09347239 6.04468712,9.28795092 C6.04468712,10.2067239 6.37536196,11.0475828 6.88554601,11.7372761 C4.51634356,13.0624294 3.75106748,15.103411 3.52186503,16.3032883 C1.91327607,14.6946994 0.918920245,12.450773 0.918920245,10.0012025 M20.0000245,10.0012025 C20.0000245,4.49040491 15.5095951,-2.45398773e-05 9.99879755,-2.45398773e-05 C4.488,-2.45398773e-05 2.45398773e-05,4.49040491 2.45398773e-05,10.0012025 C2.45398773e-05,13.0365399 1.37707975,15.767092 3.51953374,17.6024294 C3.54554601,17.6284417 3.57155828,17.654454 3.62112883,17.6780123 C5.35487117,19.1331043 7.57536196,19.9999755 10.0248098,19.9999755 C12.4223558,19.9999755 14.6427239,19.1331043 16.376589,17.7300368 C16.4780613,17.7040245 16.5560982,17.6284417 16.6056687,17.5504049 C18.6748712,15.6891779 20.0000245,13.0105276 20.0000245,10.0012025" id="Fill-1" fill="#FFFFFF" mask="url(#mask-2)"></path>
          </g>
        </g>
      </g>
    </g>
  </g>
</svg>
