<svg width="18px" height="18px" viewBox="0 0 20 20" version="1.1" xmlns="http://www.w3.org/2000/svg" xmlns:xlink="http://www.w3.org/1999/xlink">
    <!-- Generator: Sketch 51.2 (57519) - http://www.bohemiancoding.com/sketch -->
    <desc>Created with Sketch.</desc>
    <defs></defs>
    <g id="Page-1" stroke="none" stroke-width="1" fill="none" fill-rule="evenodd">
        <g id="warn" transform="translate(-700.000000, -385.000000)">
            <g id="ic_wrong" transform="translate(700.000000, 385.000000)">
                <g>
                    <path d="M10,20 C4.4771525,20 6.76353751e-16,15.5228475 0,10 C-6.76353751e-16,4.4771525 4.4771525,1.01453063e-15 10,0 C15.5228475,-1.01453063e-15 20,4.4771525 20,10 C20,15.5228475 15.5228475,20 10,20 Z" id="Shape" fill="#D96A49" fill-rule="nonzero"></path>
                    <path d="M11.25,5.83375 C11.25,5.14339406 10.6903559,4.58375 10,4.58375 C9.30964406,4.58375 8.75,5.14339406 8.75,5.83375 L8.75,10.83375 C8.75,11.5241059 9.30964406,12.08375 10,12.08375 C10.6903559,12.08375 11.25,11.5241059 11.25,10.83375 L11.25,5.83375 Z" id="Path" fill="#FFFFFF" fill-rule="nonzero"></path>
                    <path d="M10,13.33375 C9.30964406,13.33375 8.75,13.8933941 8.75,14.58375 C8.75,15.2741059 9.30964406,15.83375 10,15.83375 C10.6903559,15.83375 11.25,15.2741059 11.25,14.58375 C11.25,13.8933941 10.6903559,13.33375 10,13.33375 Z" id="Path" fill="#FFFFFF" fill-rule="nonzero"></path>
                </g>
            </g>
        </g>
    </g>
</svg>
