<svg id="图层_1" data-name="图层 1" xmlns="http://www.w3.org/2000/svg" xmlns:xlink="http://www.w3.org/1999/xlink" viewBox="0 0 33.15 34"><defs><style>.cls-1,.cls-2{fill:none;}.cls-1{clip-rule:evenodd;}.cls-3{clip-path:url(#clip-path);}.cls-4{fill:#ffffff;}.cls-5{clip-path:url(#clip-path-2);}.cls-6{clip-path:url(#clip-path-3);}.cls-7{clip-path:url(#clip-path-4);}.cls-8{clip-path:url(#clip-path-5);}.cls-9{clip-path:url(#clip-path-6);}.cls-10{clip-path:url(#clip-path-7);}</style><clipPath id="clip-path"><path class="cls-1" d="M22.85,29H26.7V12.22H22.85ZM7.21,29H19.52V5.21H7.21ZM19.52,1.5v.08H7.21V1.5H3.88V29H2.5v3.63H31.21V29H30V8.76h-.44V8.59H22.85V1.5Z"/></clipPath><clipPath id="clip-path-2"><rect class="cls-2" x="8.5" y="15.5" width="3.08" height="3.35"/></clipPath><clipPath id="clip-path-3"><rect class="cls-2" x="8.5" y="22.5" width="3.08" height="3.35"/></clipPath><clipPath id="clip-path-4"><rect class="cls-2" x="8.5" y="8.5" width="3.08" height="3.35"/></clipPath><clipPath id="clip-path-5"><rect class="cls-2" x="14.5" y="15.5" width="3.08" height="3.35"/></clipPath><clipPath id="clip-path-6"><rect class="cls-2" x="14.5" y="22.5" width="3.08" height="3.35"/></clipPath><clipPath id="clip-path-7"><rect class="cls-2" x="14.5" y="8.5" width="3.08" height="3.35"/></clipPath></defs><title>画板 8</title><g class="cls-3"><rect class="cls-4" x="-2.5" y="-3.5" width="38.71" height="41.15"/></g><g class="cls-5"><rect class="cls-4" x="3.5" y="10.5" width="13.08" height="13.35"/></g><g class="cls-6"><rect class="cls-4" x="3.5" y="17.5" width="13.08" height="13.35"/></g><g class="cls-7"><rect class="cls-4" x="3.5" y="3.5" width="13.08" height="13.35"/></g><g class="cls-8"><rect class="cls-4" x="9.5" y="10.5" width="13.08" height="13.35"/></g><g class="cls-9"><rect class="cls-4" x="9.5" y="17.5" width="13.08" height="13.35"/></g><g class="cls-10"><rect class="cls-4" x="9.5" y="3.5" width="13.08" height="13.35"/></g></svg>