<svg width="12px" height="12px" viewBox="0 0 12 12" version="1.1" xmlns="http://www.w3.org/2000/svg" xmlns:xlink="http://www.w3.org/1999/xlink">
    <!-- Generator: Sketch 51.2 (57519) - http://www.bohemiancoding.com/sketch -->
    <desc>Created with Sketch.</desc>
    <defs></defs>
    <g id="Page-1" stroke="none" stroke-width="1" fill="none" fill-rule="evenodd">
        <g id="clear-01" transform="translate(-990.000000, -473.000000)" fill="#FDF1F3">
            <g id="clear-02" transform="translate(990.000000, 473.000000)">
                <path d="M11.3670943,6.00627204 C11.3454642,8.88772292 9.0429283,11.2811788 6.16202264,11.3894509 C3.29091321,11.4973149 0.811909434,9.20587406 0.619275472,6.35322922 C0.425766038,3.48748111 2.62387925,0.921687657 5.4704,0.643042821 C8.32075472,0.364035264 10.9623245,2.47405542 11.3259472,5.31772292 C11.3550642,5.54596474 11.3652679,5.77626196 11.3670943,6.00627204 C11.3701132,6.40529471 11.9883774,6.40553652 11.9853132,6.00627204 C11.9641509,3.17534509 9.95418868,0.688564232 7.1754717,0.119214106 C4.39993962,-0.449486146 1.53053585,1.09242317 0.448649057,3.70662469 C-0.647637736,6.35576826 0.328649057,9.42471537 2.68531321,11.0187657 C5.04952453,12.6179547 8.30513208,12.2057531 10.2855547,10.1946196 C11.3788377,9.08431738 11.9736453,7.55786902 11.9852528,6.00621159 C11.9883321,5.60688665 11.3700528,5.60718892 11.3670943,6.00627204 Z"></path>
                <path d="M3.82381887,8.61048363 L8.58926792,3.83898741 C8.8714566,3.55642821 8.43426415,3.11873048 8.15218113,3.40122922 L3.3866717,8.17284635 C3.10448302,8.45528463 3.54163019,8.89304282 3.82381887,8.61048363 Z" id="Fill-4"></path>
                <path d="M8.58926792,8.17284635 L3.82381887,3.40122922 C3.54163019,3.11879093 3.10448302,3.55642821 3.3866717,3.83898741 C4.97516981,5.42948615 6.56362264,7.02004534 8.15218113,8.61048363 C8.43426415,8.89304282 8.8714566,8.45528463 8.58926792,8.17284635 Z" id="Fill-5"></path>
            </g>
        </g>
    </g>
</svg>