<svg width="12px" height="12px" viewBox="0 0 12 12" version="1.1" xmlns="http://www.w3.org/2000/svg" xmlns:xlink="http://www.w3.org/1999/xlink">
    <!-- Generator: Sketch 51.2 (57519) - http://www.bohemiancoding.com/sketch -->
    <desc>Created with Sketch.</desc>
    <defs>
        <polygon id="path-1" points="0.0010041841 0 11.9966695 0 11.9966695 11.9966695 0.0010041841 11.9966695"></polygon>
    </defs>
    <g id="import-01" stroke="none" stroke-width="1" fill="none" fill-rule="evenodd">
        <g id="import-02" transform="translate(-859.000000, -473.000000)">
            <g id="import-03" transform="translate(859.000000, 473.000000)">
                <mask id="mask-2" fill="white">
                    <use xlink:href="#path-1"></use>
                </mask>
                <g id="import-04"></g>
                <path d="M6.53902929,6.53902929 C6.37134728,6.70535565 6.10087029,6.70535565 5.93318828,6.53902929 L0.125138075,0.730912134 C-0.0411882845,0.563213389 -0.0411882845,0.292820084 0.125138075,0.125138075 C0.292820084,-0.0411882845 0.563213389,-0.0411882845 0.730912134,0.125138075 L6.53902929,5.93318828 C6.70625941,6.10048536 6.70625941,6.37173222 6.53902929,6.53902929 Z" id="Fill-1" fill="#F2FFFC" fill-rule="evenodd" mask="url(#mask-2)"></path>
                <path d="M2.57074477,6.42677824 C2.57074477,6.19116318 2.76353138,5.99829289 2.99914644,5.99829289 L6.42677824,5.99829289 C6.66239331,5.99829289 6.8552636,6.19116318 6.8552636,6.42677824 C6.8552636,6.66239331 6.66239331,6.8552636 6.42677824,6.8552636 L2.99914644,6.8552636 C2.76274477,6.85472803 2.57119665,6.66317992 2.57074477,6.42677824 Z" id="Fill-3" fill="#F2FFFC" fill-rule="evenodd" mask="url(#mask-2)"></path>
                <path d="M11.1397824,0 L5.99829289,0 L5.99829289,0.856887029 L10.7112971,0.856887029 C10.9469121,0.856887029 11.1397824,1.04969038 11.1397824,1.28537238 L11.1397824,10.7112971 C11.1397824,10.9469121 10.9469121,11.1397824 10.7112971,11.1397824 L1.28537238,11.1397824 C1.04890377,11.1392469 0.857355649,10.9476987 0.856887029,10.7112971 L0.856887029,5.99829289 L0,5.99829289 L0,11.1397824 C0,11.6110795 0.385589958,11.9966695 0.856887029,11.9966695 L11.1397824,11.9966695 C11.6110795,11.9966695 11.9966695,11.6110795 11.9966695,11.1397824 L11.9966695,0.856887029 C11.9966695,0.385589958 11.6110795,0 11.1397824,0 Z" id="Fill-4" fill="#F2FFFC" fill-rule="evenodd" mask="url(#mask-2)"></path>
                <path d="M0,5.99829289 C0,6.23496234 0.1918159,6.42677824 0.428485356,6.42677824 C0.66507113,6.42677824 0.856887029,6.23496234 0.856887029,5.99829289 C0.856887029,5.76170711 0.66507113,5.56989121 0.428485356,5.56989121 C0.1918159,5.56989121 0,5.76170711 0,5.99829289 Z" id="Fill-5" fill="#F2FFFC" fill-rule="evenodd" mask="url(#mask-2)"></path>
                <path d="M5.56989121,0.428485356 C5.56989121,0.66507113 5.76170711,0.856887029 5.99829289,0.856887029 C6.23496234,0.856887029 6.42677824,0.66507113 6.42677824,0.428485356 C6.42677824,0.1918159 6.23496234,0 5.99829289,0 C5.76170711,0 5.56989121,0.1918159 5.56989121,0.428485356 Z" id="Fill-7" fill="#F2FFFC" fill-rule="evenodd" mask="url(#mask-2)"></path>
                <path d="M6.42677824,6.8552636 C6.19037657,6.85472803 5.99882845,6.66317992 5.99829289,6.42677824 L5.99829289,2.99914644 C5.99829289,2.76353138 6.19116318,2.57074477 6.42677824,2.57074477 C6.66239331,2.57074477 6.8552636,2.76353138 6.8552636,2.99914644 L6.8552636,6.42677824 C6.8552636,6.66239331 6.66239331,6.8552636 6.42677824,6.8552636 Z" id="Fill-8" fill="#F2FFFC" fill-rule="evenodd" mask="url(#mask-2)"></path>
            </g>
        </g>
    </g>
</svg>