<?xml version="1.0" encoding="utf-8"?>
<!-- Generator: Adobe Illustrator 22.0.0, SVG Export Plug-In . SVG Version: 6.00 Build 0)  -->
<svg version="1.1" id="图层_1" xmlns="http://www.w3.org/2000/svg" xmlns:xlink="http://www.w3.org/1999/xlink" x="0px" y="0px"
 width="16px" height="18px"
	 viewBox="0 0 18 18" style="enable-background:new 0 0 18 18;" xml:space="preserve">
<style type="text/css">
	.st0{fill:#1EBBA6;}
</style>
<g>
	<path class="st0" d="M18,9.6c0-0.1-0.1-0.3-0.1-0.4l0,0l0,0c-0.1-0.3-0.3-0.5-0.5-0.8c-0.2-0.3-0.4-0.4-0.7-0.6
		c-0.1-0.1-0.2-0.1-0.4-0.2c-0.2,0-0.3-0.1-0.5-0.1c0,0,0,0-0.1,0c-0.2,0-0.3,0-0.5,0.1C15,7.8,14.8,7.9,14.7,8l0,0l0,0
		c-0.1,0.1-0.2,0.2-0.3,0.3c-0.1,0.1-0.2,0.2-0.3,0.2L14,8.6l0,0L14,8.7l-0.6,0.5l0,0l0,0l-2,2l-0.7,0.8L10,12.8
		c-0.2,0.2-0.4,0.4-0.5,0.5l-0.2,0.2l0,0c-0.1,0.1-0.2,0.3-0.3,0.4c-0.1,0.1-0.1,0.2-0.2,0.3c-0.1,0.1-0.1,0.2-0.2,0.4
		c-0.1,0.2-0.1,0.3-0.2,0.5c-0.1,0.2-0.1,0.4-0.1,0.5c-0.1,0.2-0.1,0.4-0.1,0.5c-0.1,0.4,0,0.8,0.2,1.1c0.1,0.2,0.4,0.4,0.9,0.4
		c0.1,0,0.1,0,0.2,0l0,0l0,0c0.1,0,0.2,0,0.5-0.1c0.2,0,0.4-0.1,0.6-0.2c0.2-0.1,0.4-0.1,0.6-0.2c0.2-0.1,0.3-0.1,0.4-0.2
		c0.1-0.1,0.3-0.2,0.4-0.3c0.1-0.1,0.2-0.1,0.2-0.2c0.1-0.1,0.1-0.1,0.3-0.3c0.1-0.1,0.3-0.3,0.5-0.5c0.2-0.2,0.4-0.4,0.6-0.7l0,0
		l0,0l0.7-0.8l2-2l0.6-0.7l0,0l0,0c0.1-0.1,0.1-0.1,0.2-0.2c0,0,0.1-0.1,0.1-0.1c0.1-0.1,0.1-0.1,0.2-0.2l0,0l0,0
		c0.1-0.2,0.3-0.3,0.3-0.5C18,10.4,18,10.2,18,10C18,9.9,18,9.7,18,9.6L18,9.6z M13.8,13.7L13,14.5c-0.2,0.2-0.5,0.5-0.7,0.7
		c-0.2,0.2-0.4,0.4-0.5,0.5c-0.1,0.1-0.2,0.2-0.2,0.2c-0.1,0.1-0.1,0.1-0.2,0.2c-0.1,0.1-0.2,0.1-0.2,0.2c-0.1,0-0.2,0.1-0.4,0.2
		c-0.2,0.1-0.3,0.1-0.5,0.2c-0.2,0.1-0.4,0.1-0.5,0.2c-0.2,0-0.3,0.1-0.4,0.1c0,0-0.1,0-0.1,0c-0.1,0-0.2,0-0.2-0.1
		C9,16.7,9,16.6,9,16.4c0-0.1,0-0.2,0.1-0.4c0-0.2,0.1-0.3,0.1-0.5c0.1-0.2,0.1-0.3,0.2-0.5c0-0.2,0.1-0.3,0.1-0.3
		c0-0.1,0.1-0.2,0.1-0.2c0-0.1,0.1-0.2,0.2-0.2c0,0,0.1-0.1,0.3-0.3c0.1-0.1,0.3-0.3,0.5-0.5l0.7-0.7L12,12l2-2l1.7,1.8L13.8,13.7z
		 M17.1,10.3c0,0.1-0.1,0.2-0.1,0.2c-0.1,0.1-0.1,0.1-0.2,0.2c-0.1,0.1-0.1,0.1-0.2,0.2c0,0-0.1,0.1-0.1,0.1l-1.7-1.8
		C14.8,9.2,14.9,9.1,15,9c0.1-0.1,0.2-0.2,0.3-0.2c0.1-0.1,0.2-0.1,0.3-0.1c0.1,0,0.2,0,0.2,0c0,0,0,0,0,0c0.1,0,0.2,0,0.3,0
		c0.1,0,0.2,0.1,0.2,0.1c0.1,0.1,0.3,0.2,0.4,0.4c0.2,0.2,0.3,0.4,0.4,0.5c0,0.1,0,0.1,0.1,0.2c0,0.1,0,0.2,0,0.2
		C17.1,10.1,17.1,10.2,17.1,10.3L17.1,10.3z M17.1,10.3"/>
	<path class="st0" d="M6.2,16.8H2.4c-0.7,0-1.2-0.5-1.2-1.2V2.5c0-0.7,0.5-1.2,1.2-1.2h12.7c0.7,0,1.2,0.5,1.2,1.2v3.3
		c0,0.3,0.3,0.6,0.6,0.6c0.3,0,0.6-0.3,0.6-0.6V2.5c0-1.4-1.1-2.5-2.4-2.5H2.4C1.1,0,0,1.1,0,2.5v13.1C0,16.9,1.1,18,2.4,18h3.8
		c0.3,0,0.6-0.3,0.6-0.6C6.8,17,6.5,16.8,6.2,16.8L6.2,16.8z M6.2,16.8"/>
	<path class="st0" d="M13.5,4.1c0-0.3-0.3-0.6-0.6-0.6H4.3C4,3.4,3.7,3.7,3.7,4.1c0,0.3,0.3,0.6,0.6,0.6h8.6
		C13.2,4.7,13.5,4.4,13.5,4.1L13.5,4.1z M13.5,4.1"/>
	<path class="st0" d="M4.3,6.7C4,6.7,3.7,7,3.7,7.3c0,0.3,0.3,0.6,0.6,0.6h5.9c0.3,0,0.6-0.3,0.6-0.6c0-0.3-0.3-0.6-0.6-0.6H4.3z
		 M4.3,6.7"/>
	<path class="st0" d="M7.7,10.2H4.3c-0.3,0-0.6,0.3-0.6,0.6c0,0.3,0.3,0.6,0.6,0.6h3.4c0.3,0,0.6-0.3,0.6-0.6
		C8.3,10.5,8,10.2,7.7,10.2L7.7,10.2z M7.7,10.2"/>
</g>
</svg>
