<svg width="20px" height="20px" viewBox="0 0 20 20" version="1.1" xmlns="http://www.w3.org/2000/svg" xmlns:xlink="http://www.w3.org/1999/xlink">
    <!-- Generator: Sketch 51.2 (57519) - http://www.bohemiancoding.com/sketch -->
    <desc>Created with Sketch.</desc>
    <defs></defs>
    <g id="zuhe02" stroke="none" stroke-width="1" fill="none" fill-rule="evenodd">
        <g id="zuhe02-01" transform="translate(-307.000000, -509.000000)" fill="#9D9D9D">
            <g id="zuhe02-02" transform="translate(267.000000, 498.000000)">
                <g id="icon_pres_zuhe02" transform="translate(40.000000, 11.000000)">
                    <g id="zuhe02-03">
                        <path d="M9.97775306,11.3904338 C9.7730812,11.3904338 9.56618465,11.3259177 9.3948832,11.1991101 L0.482758621,6.59621802 C0.418242492,6.56284761 0.358175751,6.51835373 0.307007786,6.46718576 C0.122358176,6.28253615 0.0200222469,6.03559511 0.0200222469,5.7753059 C0.0200222469,5.51279199 0.122358176,5.26807564 0.307007786,5.08342603 C0.355951057,5.03448276 0.413793103,4.99221357 0.476084538,4.95884316 L9.41490545,0.197997775 C9.75973304,-0.0622914349 10.240267,-0.0622914349 10.5873192,0.195773081 L19.4994438,4.86540601 C19.56396,4.89877642 19.621802,4.94104561 19.67297,4.99221357 C19.8576196,5.17686318 19.9599555,5.42380423 19.9599555,5.68409344 C19.9599555,5.94438265 19.8576196,6.19132369 19.67297,6.3759733 C19.621802,6.42714127 19.56396,6.46941046 19.5016685,6.50278087 L10.5650723,11.1968854 C10.3893215,11.3259177 10.1846496,11.3904338 9.97775306,11.3904338 Z M1.98220245,5.76863181 L9.97552836,9.89766407 L17.9955506,5.68631813 L10.0022247,1.49721913 L1.98220245,5.76863181 Z M19.6484983,13.4193548 C19.9510567,13.6284761 20.2113459,14.6829811 19.6440489,14.9810901 L10.3403782,19.8598443 C10.1846496,19.9532814 9.76863181,19.9532814 9.61735261,19.8531702 L0.344827586,15.0567297 C-0.157953281,14.7096774 0.0311457175,13.7508343 0.26028921,13.4749722 L9.99110122,18.5027809 L19.6484983,13.4193548 Z M1.51279199,5.93993326 L9.29922136,0.867630701 L19.1323693,5.93993326 C13.1998517,8.87652948 10.063033,10.3448276 9.72191324,10.3448276 C9.38079347,10.3448276 6.64441973,8.87652948 1.51279199,5.93993326 Z" id="Combined-Shape" fill-rule="nonzero"></path>
                        <path d="M19.6484983,9.14126808 L9.99110122,14.2224694 L0.26028921,9.19466073 C0.0311457175,9.4705228 -0.157953281,10.429366 0.344827586,10.7764182 L9.61512792,15.5728587 C9.76640712,15.67297 10.1824249,15.67297 10.3381535,15.5795328 L19.6395996,10.7007786 C20.2113459,10.4048943 19.9510567,9.34816463 19.6484983,9.14126808 Z" id="zuhe02-04" fill-rule="nonzero"></path>
                    </g>
                </g>
            </g>
        </g>
    </g>
</svg>